<svg width="180" height="110" viewBox="0 0 180 110" fill="none" xmlns="http://www.w3.org/2000/svg">
<g clip-path="url(#clip0_29_9077)">
<rect width="180" height="110" rx="12" fill="url(#paint0_linear_29_9077)"/>
<path d="M21 151.695C25.9556 151.776 30.8779 150.87 35.4798 149.03C40.0818 147.189 44.2714 144.451 47.8046 140.976C51.3378 137.5 54.1439 133.355 56.0593 128.784C57.9747 124.213 58.9611 119.306 58.9611 114.35C58.9611 109.394 57.9747 104.487 56.0593 99.9157C54.1439 95.3445 51.3378 91.2002 47.8046 87.7244C44.2714 84.2485 40.0818 81.5106 35.4798 79.6703C30.8779 77.8299 25.9556 76.9239 21 77.005V151.695Z" fill="#B3B3B3"/>
<path d="M106.526 18.0889C116.587 13.8617 121.316 2.27863 117.089 -7.78254C112.862 -17.8437 101.279 -22.573 91.2174 -18.3458C81.1562 -14.1185 76.4269 -2.53546 80.6541 7.5257C84.8814 17.5869 96.4645 22.3162 106.526 18.0889Z" fill="url(#paint1_linear_29_9077)"/>
<path d="M110 4.96997C110 4.70475 109.895 4.4504 109.707 4.26286C109.52 4.07533 109.265 3.96997 109 3.96997C108.735 3.96997 108.48 4.07533 108.293 4.26286C108.105 4.4504 108 4.70475 108 4.96997C108 5.23519 108.105 5.48954 108.293 5.67708C108.48 5.86461 108.735 5.96997 109 5.96997C109.265 5.96997 109.52 5.86461 109.707 5.67708C109.895 5.48954 110 5.23519 110 4.96997Z" fill="white"/>
<path d="M115.98 4.96997C115.98 4.70475 115.875 4.4504 115.687 4.26286C115.5 4.07533 115.245 3.96997 114.98 3.96997C114.715 3.96997 114.46 4.07533 114.273 4.26286C114.085 4.4504 113.98 4.70475 113.98 4.96997C113.98 5.23519 114.085 5.48954 114.273 5.67708C114.46 5.86461 114.715 5.96997 114.98 5.96997C115.245 5.96997 115.5 5.86461 115.687 5.67708C115.875 5.48954 115.98 5.23519 115.98 4.96997Z" fill="white"/>
<path d="M121.97 4.96997C121.97 4.70475 121.865 4.4504 121.677 4.26286C121.49 4.07533 121.235 3.96997 120.97 3.96997C120.705 3.96997 120.451 4.07533 120.263 4.26286C120.076 4.4504 119.97 4.70475 119.97 4.96997C119.97 5.23519 120.076 5.48954 120.263 5.67708C120.451 5.86461 120.705 5.96997 120.97 5.96997C121.235 5.96997 121.49 5.86461 121.677 5.67708C121.865 5.48954 121.97 5.23519 121.97 4.96997Z" fill="white"/>
<path d="M127.96 4.96997C127.96 4.70475 127.855 4.4504 127.667 4.26286C127.48 4.07533 127.225 3.96997 126.96 3.96997C126.695 3.96997 126.44 4.07533 126.253 4.26286C126.065 4.4504 125.96 4.70475 125.96 4.96997C125.96 5.23519 126.065 5.48954 126.253 5.67708C126.44 5.86461 126.695 5.96997 126.96 5.96997C127.225 5.96997 127.48 5.86461 127.667 5.67708C127.855 5.48954 127.96 5.23519 127.96 4.96997Z" fill="white"/>
<path d="M133.93 4.96997C133.93 4.70475 133.825 4.4504 133.637 4.26286C133.45 4.07533 133.195 3.96997 132.93 3.96997C132.665 3.96997 132.411 4.07533 132.223 4.26286C132.036 4.4504 131.93 4.70475 131.93 4.96997C131.93 5.23519 132.036 5.48954 132.223 5.67708C132.411 5.86461 132.665 5.96997 132.93 5.96997C133.195 5.96997 133.45 5.86461 133.637 5.67708C133.825 5.48954 133.93 5.23519 133.93 4.96997Z" fill="white"/>
<path d="M139.92 4.96997C139.92 4.77219 139.861 4.57885 139.751 4.4144C139.642 4.24995 139.485 4.12178 139.303 4.04609C139.12 3.97041 138.919 3.9506 138.725 3.98919C138.531 4.02777 138.353 4.12301 138.213 4.26287C138.073 4.40272 137.978 4.5809 137.939 4.77488C137.901 4.96886 137.92 5.16993 137.996 5.35266C138.072 5.53538 138.2 5.69156 138.364 5.80144C138.529 5.91132 138.722 5.96997 138.92 5.96997C139.185 5.96997 139.439 5.86462 139.627 5.67708C139.815 5.48955 139.92 5.23519 139.92 4.96997Z" fill="white"/>
<path d="M145.9 4.96997C145.9 4.77219 145.841 4.57885 145.731 4.4144C145.621 4.24995 145.465 4.12178 145.283 4.04609C145.1 3.97041 144.899 3.9506 144.705 3.98919C144.511 4.02777 144.333 4.12301 144.193 4.26287C144.053 4.40272 143.958 4.5809 143.919 4.77488C143.881 4.96886 143.9 5.16993 143.976 5.35266C144.052 5.53538 144.18 5.69156 144.344 5.80144C144.509 5.91132 144.702 5.96997 144.9 5.96997C145.165 5.96997 145.419 5.86462 145.607 5.67708C145.795 5.48955 145.9 5.23519 145.9 4.96997Z" fill="white"/>
<path d="M151.88 4.96997C151.88 4.70475 151.775 4.4504 151.587 4.26286C151.399 4.07533 151.145 3.96997 150.88 3.96997C150.615 3.96997 150.36 4.07533 150.173 4.26286C149.985 4.4504 149.88 4.70475 149.88 4.96997C149.88 5.23519 149.985 5.48954 150.173 5.67708C150.36 5.86461 150.615 5.96997 150.88 5.96997C151.145 5.96997 151.399 5.86461 151.587 5.67708C151.775 5.48954 151.88 5.23519 151.88 4.96997Z" fill="white"/>
<path d="M110 10.96C110 10.7622 109.941 10.5688 109.831 10.4044C109.722 10.2399 109.565 10.1118 109.383 10.0361C109.2 9.96039 108.999 9.94059 108.805 9.97918C108.611 10.0178 108.433 10.113 108.293 10.2529C108.153 10.3927 108.058 10.5709 108.019 10.7649C107.981 10.9588 108 11.1599 108.076 11.3426C108.152 11.5254 108.28 11.6816 108.444 11.7914C108.609 11.9013 108.802 11.96 109 11.96C109.265 11.96 109.52 11.8546 109.707 11.6671C109.895 11.4795 110 11.2252 110 10.96Z" fill="white"/>
<path d="M115.98 10.96C115.98 10.7622 115.921 10.5688 115.811 10.4044C115.702 10.2399 115.545 10.1118 115.363 10.0361C115.18 9.96039 114.979 9.94059 114.785 9.97918C114.591 10.0178 114.413 10.113 114.273 10.2529C114.133 10.3927 114.038 10.5709 113.999 10.7649C113.961 10.9588 113.98 11.1599 114.056 11.3426C114.132 11.5254 114.26 11.6816 114.424 11.7914C114.589 11.9013 114.782 11.96 114.98 11.96C115.245 11.96 115.5 11.8546 115.687 11.6671C115.875 11.4795 115.98 11.2252 115.98 10.96Z" fill="white"/>
<path d="M121.97 10.96C121.97 10.7622 121.912 10.5688 121.802 10.4044C121.692 10.2399 121.536 10.1118 121.353 10.0361C121.17 9.96039 120.969 9.94059 120.775 9.97918C120.581 10.0178 120.403 10.113 120.263 10.2529C120.123 10.3927 120.028 10.5709 119.989 10.7649C119.951 10.9588 119.971 11.1599 120.046 11.3426C120.122 11.5254 120.25 11.6816 120.415 11.7914C120.579 11.9013 120.772 11.96 120.97 11.96C121.235 11.96 121.49 11.8546 121.677 11.6671C121.865 11.4795 121.97 11.2252 121.97 10.96Z" fill="white"/>
<path d="M127.96 10.96C127.96 10.6947 127.855 10.4404 127.667 10.2529C127.48 10.0653 127.225 9.95996 126.96 9.95996C126.695 9.95996 126.44 10.0653 126.253 10.2529C126.065 10.4404 125.96 10.6947 125.96 10.96C125.96 11.2252 126.065 11.4795 126.253 11.6671C126.44 11.8546 126.695 11.96 126.96 11.96C127.225 11.96 127.48 11.8546 127.667 11.6671C127.855 11.4795 127.96 11.2252 127.96 10.96Z" fill="white"/>
<path d="M133.93 10.96C133.93 10.7622 133.872 10.5688 133.762 10.4044C133.652 10.2399 133.496 10.1118 133.313 10.0361C133.13 9.96039 132.929 9.94059 132.735 9.97918C132.541 10.0178 132.363 10.113 132.223 10.2529C132.083 10.3927 131.988 10.5709 131.949 10.7649C131.911 10.9588 131.931 11.1599 132.006 11.3426C132.082 11.5254 132.21 11.6816 132.375 11.7914C132.539 11.9013 132.732 11.96 132.93 11.96C133.195 11.96 133.45 11.8546 133.637 11.6671C133.825 11.4795 133.93 11.2252 133.93 10.96Z" fill="white"/>
<path d="M139.92 10.96C139.92 10.7622 139.861 10.5688 139.751 10.4044C139.642 10.2399 139.485 10.1118 139.303 10.0361C139.12 9.96039 138.919 9.94059 138.725 9.97918C138.531 10.0178 138.353 10.113 138.213 10.2529C138.073 10.3927 137.978 10.5709 137.939 10.7649C137.901 10.9588 137.92 11.1599 137.996 11.3426C138.072 11.5254 138.2 11.6816 138.364 11.7914C138.529 11.9013 138.722 11.96 138.92 11.96C139.185 11.96 139.439 11.8546 139.627 11.6671C139.815 11.4795 139.92 11.2252 139.92 10.96Z" fill="white"/>
<path d="M145.9 10.96C145.9 10.7622 145.841 10.5688 145.731 10.4044C145.621 10.2399 145.465 10.1118 145.283 10.0361C145.1 9.96039 144.899 9.94059 144.705 9.97918C144.511 10.0178 144.333 10.113 144.193 10.2529C144.053 10.3927 143.958 10.5709 143.919 10.7649C143.881 10.9588 143.9 11.1599 143.976 11.3426C144.052 11.5254 144.18 11.6816 144.344 11.7914C144.509 11.9013 144.702 11.96 144.9 11.96C145.165 11.96 145.419 11.8546 145.607 11.6671C145.795 11.4795 145.9 11.2252 145.9 10.96Z" fill="white"/>
<path d="M151.88 10.96C151.88 10.7622 151.821 10.5688 151.711 10.4044C151.601 10.2399 151.445 10.1118 151.263 10.0361C151.08 9.96039 150.879 9.94059 150.685 9.97918C150.491 10.0178 150.313 10.113 150.173 10.2529C150.033 10.3927 149.938 10.5709 149.899 10.7649C149.861 10.9588 149.88 11.1599 149.956 11.3426C150.032 11.5254 150.16 11.6816 150.324 11.7914C150.489 11.9013 150.682 11.96 150.88 11.96C151.145 11.96 151.399 11.8546 151.587 11.6671C151.775 11.4795 151.88 11.2252 151.88 10.96Z" fill="white"/>
<path d="M110 16.96C110 16.7622 109.941 16.5688 109.831 16.4044C109.722 16.2399 109.565 16.1118 109.383 16.0361C109.2 15.9604 108.999 15.9406 108.805 15.9792C108.611 16.0178 108.433 16.113 108.293 16.2529C108.153 16.3927 108.058 16.5709 108.019 16.7649C107.981 16.9588 108 17.1599 108.076 17.3426C108.152 17.5254 108.28 17.6816 108.444 17.7914C108.609 17.9013 108.802 17.96 109 17.96C109.265 17.96 109.52 17.8546 109.707 17.6671C109.895 17.4795 110 17.2252 110 16.96Z" fill="white"/>
<path d="M115.98 16.96C115.98 16.7622 115.921 16.5688 115.811 16.4044C115.702 16.2399 115.545 16.1118 115.363 16.0361C115.18 15.9604 114.979 15.9406 114.785 15.9792C114.591 16.0178 114.413 16.113 114.273 16.2529C114.133 16.3927 114.038 16.5709 113.999 16.7649C113.961 16.9588 113.98 17.1599 114.056 17.3426C114.132 17.5254 114.26 17.6816 114.424 17.7914C114.589 17.9013 114.782 17.96 114.98 17.96C115.245 17.96 115.5 17.8546 115.687 17.6671C115.875 17.4795 115.98 17.2252 115.98 16.96Z" fill="white"/>
<path d="M121.97 16.96C121.97 16.7622 121.912 16.5688 121.802 16.4044C121.692 16.2399 121.536 16.1118 121.353 16.0361C121.17 15.9604 120.969 15.9406 120.775 15.9792C120.581 16.0178 120.403 16.113 120.263 16.2529C120.123 16.3927 120.028 16.5709 119.989 16.7649C119.951 16.9588 119.971 17.1599 120.046 17.3426C120.122 17.5254 120.25 17.6816 120.415 17.7914C120.579 17.9013 120.772 17.96 120.97 17.96C121.235 17.96 121.49 17.8546 121.677 17.6671C121.865 17.4795 121.97 17.2252 121.97 16.96Z" fill="white"/>
<path d="M127.96 16.96C127.96 16.6947 127.855 16.4404 127.667 16.2529C127.48 16.0653 127.225 15.96 126.96 15.96C126.762 15.96 126.569 16.0186 126.404 16.1285C126.24 16.2384 126.112 16.3946 126.036 16.5773C125.96 16.76 125.941 16.9611 125.979 17.1551C126.018 17.349 126.113 17.5272 126.253 17.6671C126.393 17.8069 126.571 17.9022 126.765 17.9408C126.959 17.9793 127.16 17.9595 127.343 17.8838C127.525 17.8082 127.682 17.68 127.791 17.5155C127.901 17.3511 127.96 17.1577 127.96 16.96Z" fill="white"/>
<path d="M133.93 16.96C133.93 16.7622 133.872 16.5688 133.762 16.4044C133.652 16.2399 133.496 16.1118 133.313 16.0361C133.13 15.9604 132.929 15.9406 132.735 15.9792C132.541 16.0178 132.363 16.113 132.223 16.2529C132.083 16.3927 131.988 16.5709 131.949 16.7649C131.911 16.9588 131.931 17.1599 132.006 17.3426C132.082 17.5254 132.21 17.6816 132.375 17.7914C132.539 17.9013 132.732 17.96 132.93 17.96C133.195 17.96 133.45 17.8546 133.637 17.6671C133.825 17.4795 133.93 17.2252 133.93 16.96Z" fill="white"/>
<path d="M139.92 16.96C139.92 16.7622 139.861 16.5688 139.751 16.4044C139.642 16.2399 139.485 16.1118 139.303 16.0361C139.12 15.9604 138.919 15.9406 138.725 15.9792C138.531 16.0178 138.353 16.113 138.213 16.2529C138.073 16.3927 137.978 16.5709 137.939 16.7649C137.901 16.9588 137.92 17.1599 137.996 17.3426C138.072 17.5254 138.2 17.6816 138.364 17.7914C138.529 17.9013 138.722 17.96 138.92 17.96C139.185 17.96 139.439 17.8546 139.627 17.6671C139.815 17.4795 139.92 17.2252 139.92 16.96Z" fill="white"/>
<path d="M145.9 16.96C145.9 16.6947 145.795 16.4404 145.607 16.2529C145.419 16.0653 145.165 15.96 144.9 15.96C144.635 15.96 144.38 16.0653 144.193 16.2529C144.005 16.4404 143.9 16.6947 143.9 16.96C143.9 17.2252 144.005 17.4795 144.193 17.6671C144.38 17.8546 144.635 17.96 144.9 17.96C145.165 17.96 145.419 17.8546 145.607 17.6671C145.795 17.4795 145.9 17.2252 145.9 16.96Z" fill="white"/>
<path d="M151.88 16.96C151.88 16.7622 151.821 16.5688 151.711 16.4044C151.601 16.2399 151.445 16.1118 151.263 16.0361C151.08 15.9604 150.879 15.9406 150.685 15.9792C150.491 16.0178 150.313 16.113 150.173 16.2529C150.033 16.3927 149.938 16.5709 149.899 16.7649C149.861 16.9588 149.88 17.1599 149.956 17.3426C150.032 17.5254 150.16 17.6816 150.324 17.7914C150.489 17.9013 150.682 17.96 150.88 17.96C151.145 17.96 151.399 17.8546 151.587 17.6671C151.775 17.4795 151.88 17.2252 151.88 16.96Z" fill="white"/>
<path d="M110 22.95C110 22.6847 109.895 22.4304 109.707 22.2429C109.52 22.0553 109.265 21.95 109 21.95C108.735 21.95 108.48 22.0553 108.293 22.2429C108.105 22.4304 108 22.6847 108 22.95C108 23.2152 108.105 23.4695 108.293 23.6571C108.48 23.8446 108.735 23.95 109 23.95C109.265 23.95 109.52 23.8446 109.707 23.6571C109.895 23.4695 110 23.2152 110 22.95Z" fill="white"/>
<path d="M115.98 22.95C115.98 22.6847 115.875 22.4304 115.687 22.2429C115.5 22.0553 115.245 21.95 114.98 21.95C114.715 21.95 114.46 22.0553 114.273 22.2429C114.085 22.4304 113.98 22.6847 113.98 22.95C113.98 23.2152 114.085 23.4695 114.273 23.6571C114.46 23.8446 114.715 23.95 114.98 23.95C115.245 23.95 115.5 23.8446 115.687 23.6571C115.875 23.4695 115.98 23.2152 115.98 22.95Z" fill="white"/>
<path d="M121.97 22.95C121.97 22.6847 121.865 22.4304 121.677 22.2429C121.49 22.0553 121.235 21.95 120.97 21.95C120.705 21.95 120.451 22.0553 120.263 22.2429C120.076 22.4304 119.97 22.6847 119.97 22.95C119.97 23.2152 120.076 23.4695 120.263 23.6571C120.451 23.8446 120.705 23.95 120.97 23.95C121.235 23.95 121.49 23.8446 121.677 23.6571C121.865 23.4695 121.97 23.2152 121.97 22.95Z" fill="white"/>
<path d="M127.96 22.95C127.96 22.6847 127.855 22.4304 127.667 22.2429C127.48 22.0553 127.225 21.95 126.96 21.95C126.695 21.95 126.44 22.0553 126.253 22.2429C126.065 22.4304 125.96 22.6847 125.96 22.95C125.96 23.2152 126.065 23.4695 126.253 23.6571C126.44 23.8446 126.695 23.95 126.96 23.95C127.225 23.95 127.48 23.8446 127.667 23.6571C127.855 23.4695 127.96 23.2152 127.96 22.95Z" fill="white"/>
<path d="M133.93 22.95C133.93 22.6847 133.825 22.4304 133.637 22.2429C133.45 22.0553 133.195 21.95 132.93 21.95C132.665 21.95 132.411 22.0553 132.223 22.2429C132.036 22.4304 131.93 22.6847 131.93 22.95C131.93 23.2152 132.036 23.4695 132.223 23.6571C132.411 23.8446 132.665 23.95 132.93 23.95C133.195 23.95 133.45 23.8446 133.637 23.6571C133.825 23.4695 133.93 23.2152 133.93 22.95Z" fill="white"/>
<path d="M139.92 22.9499C139.92 22.7522 139.861 22.5588 139.751 22.3944C139.642 22.2299 139.485 22.1018 139.303 22.0261C139.12 21.9504 138.919 21.9306 138.725 21.9692C138.531 22.0078 138.353 22.103 138.213 22.2428C138.073 22.3827 137.978 22.5609 137.939 22.7549C137.901 22.9488 137.92 23.1499 137.996 23.3326C138.072 23.5154 138.2 23.6715 138.364 23.7814C138.529 23.8913 138.722 23.9499 138.92 23.9499C139.185 23.9499 139.439 23.8446 139.627 23.6571C139.815 23.4695 139.92 23.2152 139.92 22.9499Z" fill="white"/>
<path d="M145.9 22.9499C145.9 22.7522 145.841 22.5588 145.731 22.3944C145.621 22.2299 145.465 22.1018 145.283 22.0261C145.1 21.9504 144.899 21.9306 144.705 21.9692C144.511 22.0078 144.333 22.103 144.193 22.2428C144.053 22.3827 143.958 22.5609 143.919 22.7549C143.881 22.9488 143.9 23.1499 143.976 23.3326C144.052 23.5154 144.18 23.6715 144.344 23.7814C144.509 23.8913 144.702 23.9499 144.9 23.9499C145.165 23.9499 145.419 23.8446 145.607 23.6571C145.795 23.4695 145.9 23.2152 145.9 22.9499Z" fill="white"/>
<path d="M149.89 22.95C149.89 23.2152 149.995 23.4695 150.183 23.6571C150.371 23.8446 150.625 23.95 150.89 23.95C151.155 23.95 151.41 23.8446 151.597 23.6571C151.785 23.4695 151.89 23.2152 151.89 22.95C151.89 22.6847 151.785 22.4304 151.597 22.2429C151.41 22.0553 151.155 21.95 150.89 21.95C150.625 21.95 150.371 22.0553 150.183 22.2429C149.995 22.4304 149.89 22.6847 149.89 22.95Z" fill="white"/>
<path opacity="0.5" d="M29.9882 87.1217C38.6877 83.4666 42.7769 73.4512 39.1217 64.7517C35.4666 56.0522 25.4513 51.963 16.7518 55.6181C8.05232 59.2733 3.96307 69.2886 7.61821 77.9881C11.2733 86.6876 21.2887 90.7768 29.9882 87.1217Z" fill="url(#paint2_linear_29_9077)"/>
<path d="M0.0438899 97.8295C-0.221327 97.9422 -0.430903 98.1557 -0.538736 98.4229C-0.64657 98.6901 -0.643828 98.9893 -0.531111 99.2545C-0.418394 99.5197 -0.204936 99.7293 0.0623034 99.8371C0.329543 99.9449 0.628672 99.9422 0.893888 99.8295C1.02521 99.7737 1.14426 99.6925 1.24422 99.5907C1.34419 99.4889 1.42312 99.3684 1.47652 99.2361C1.52991 99.1037 1.55672 98.9622 1.55541 98.8195C1.5541 98.6768 1.5247 98.5358 1.46889 98.4045C1.41308 98.2732 1.33195 98.1541 1.23013 98.0542C1.12831 97.9542 1.0078 97.8752 0.875475 97.8219C0.743151 97.7685 0.601609 97.7417 0.458925 97.743C0.316241 97.7443 0.175212 97.7737 0.0438899 97.8295Z" fill="white"/>
<path d="M5.15375 109.72C4.95773 109.805 4.79133 109.946 4.67559 110.125C4.55985 110.305 4.49999 110.515 4.50357 110.729C4.50715 110.942 4.57402 111.15 4.6957 111.326C4.81739 111.501 4.98844 111.637 5.1872 111.715C5.38596 111.793 5.60351 111.811 5.81231 111.766C6.02112 111.721 6.2118 111.614 6.36023 111.461C6.50867 111.307 6.60819 111.113 6.64619 110.903C6.6842 110.692 6.65899 110.475 6.57375 110.28C6.51829 110.149 6.43733 110.03 6.33559 109.931C6.23384 109.832 6.11336 109.754 5.98118 109.702C5.84899 109.65 5.70774 109.624 5.56568 109.627C5.42362 109.63 5.28358 109.662 5.15375 109.72Z" fill="white"/>
<path d="M2.60395 103.77C2.47263 103.825 2.35358 103.907 2.25362 104.008C2.15365 104.11 2.07471 104.231 2.02132 104.363C1.96793 104.495 1.94112 104.637 1.94243 104.78C1.94374 104.922 1.97314 105.063 2.02895 105.195C2.08476 105.326 2.16589 105.445 2.26771 105.545C2.36953 105.645 2.49004 105.724 2.62236 105.777C2.75469 105.831 2.89623 105.857 3.03891 105.856C3.1816 105.855 3.32263 105.825 3.45395 105.77C3.71917 105.657 3.92874 105.443 4.03658 105.176C4.14441 104.909 4.14167 104.61 4.02895 104.345C3.91623 104.079 3.70277 103.87 3.43554 103.762C3.1683 103.654 2.86917 103.657 2.60395 103.77Z" fill="white"/>
<path d="M9.81391 107.72C9.68259 107.775 9.56354 107.857 9.46358 107.958C9.36361 108.06 9.28468 108.181 9.23129 108.313C9.17789 108.445 9.15108 108.587 9.15239 108.73C9.1537 108.872 9.1831 109.013 9.23891 109.145C9.29472 109.276 9.37585 109.395 9.47767 109.495C9.57949 109.595 9.7 109.674 9.83232 109.727C9.96465 109.781 10.1062 109.807 10.2489 109.806C10.3916 109.805 10.5326 109.775 10.6639 109.72C10.9291 109.607 11.1387 109.393 11.2465 109.126C11.3544 108.859 11.3516 108.56 11.2389 108.295C11.1262 108.029 10.9127 107.82 10.6455 107.712C10.3783 107.604 10.0791 107.607 9.81391 107.72Z" fill="white"/>
<path d="M4.70398 95.8295C4.57351 95.8841 4.45515 95.964 4.35574 96.0646C4.25634 96.1652 4.17787 96.2845 4.12487 96.4156C4.07186 96.5468 4.04538 96.6871 4.04694 96.8285C4.04851 96.9699 4.07809 97.1096 4.13398 97.2395C4.18979 97.3709 4.27092 97.4899 4.37274 97.5899C4.47456 97.6898 4.59507 97.7688 4.72739 97.8222C4.85972 97.8756 5.00126 97.9024 5.14394 97.9011C5.28663 97.8997 5.42766 97.8703 5.55898 97.8145C5.6903 97.7587 5.80935 97.6776 5.90931 97.5758C6.00928 97.474 6.08821 97.3534 6.14161 97.2211C6.195 97.0888 6.22181 96.9473 6.2205 96.8046C6.21919 96.6619 6.18979 96.5209 6.13398 96.3895C6.07859 96.2575 5.99724 96.1379 5.89477 96.0378C5.7923 95.9378 5.67079 95.8593 5.53743 95.8071C5.40407 95.7549 5.26159 95.7299 5.11843 95.7338C4.97526 95.7376 4.83433 95.7702 4.70398 95.8295Z" fill="white"/>
<path d="M7.25406 101.769C7.05793 101.854 6.89115 101.994 6.77477 102.173C6.65839 102.352 6.59764 102.561 6.60017 102.775C6.60271 102.988 6.66843 103.196 6.78903 103.372C6.90963 103.548 7.0797 103.685 7.27778 103.764C7.47585 103.844 7.69304 103.863 7.90193 103.819C8.11081 103.775 8.30203 103.67 8.45142 103.518C8.60082 103.365 8.7017 103.172 8.74132 102.962C8.78095 102.753 8.75754 102.536 8.67406 102.34C8.61955 102.208 8.53927 102.088 8.43794 101.988C8.33661 101.888 8.21627 101.809 8.08399 101.756C7.95171 101.703 7.81016 101.676 7.66764 101.679C7.52512 101.681 7.3845 101.712 7.25406 101.769Z" fill="white"/>
<path d="M2.14377 89.8797C1.88133 89.9938 1.67493 90.2075 1.56993 90.4738C1.46493 90.74 1.46991 91.0371 1.58378 91.2997C1.69649 91.5649 1.90995 91.7745 2.17719 91.8823C2.44443 91.9901 2.74356 91.9874 3.00878 91.8747C3.27399 91.7619 3.48357 91.5485 3.5914 91.2812C3.69924 91.014 3.69649 90.7149 3.58378 90.4497C3.52829 90.3164 3.44664 90.1955 3.34366 90.0943C3.24067 89.9931 3.11844 89.9136 2.98419 89.8605C2.84993 89.8073 2.70639 89.7817 2.56204 89.7849C2.41769 89.7882 2.27546 89.8204 2.14377 89.8797Z" fill="white"/>
<path d="M-0.406182 83.9396C-0.671399 84.051 -0.881502 84.2632 -0.990273 84.5295C-1.09904 84.7958 -1.09757 85.0944 -0.98618 85.3596C-0.874789 85.6248 -0.662604 85.8349 -0.396302 85.9437C-0.130001 86.0524 0.168601 86.051 0.433818 85.9396C0.56514 85.8844 0.684315 85.804 0.784534 85.7027C0.884752 85.6015 0.964051 85.4816 1.01791 85.3497C1.07177 85.2179 1.09913 85.0767 1.09843 84.9342C1.09772 84.7918 1.06897 84.6509 1.01382 84.5196C0.958664 84.3883 0.878184 84.2691 0.776973 84.1689C0.675761 84.0687 0.555801 83.9894 0.423942 83.9355C0.292082 83.8816 0.150904 83.8543 0.00847149 83.855C-0.133961 83.8557 -0.27486 83.8844 -0.406182 83.9396Z" fill="white"/>
<path d="M1.69403 75.9896C1.43228 76.102 1.22552 76.3132 1.11876 76.5773C1.012 76.8413 1.0139 77.1369 1.12403 77.3996C1.23843 77.6621 1.4515 77.869 1.7172 77.9756C1.98291 78.0823 2.27991 78.0801 2.54403 77.9696C2.67485 77.9141 2.79332 77.8332 2.89252 77.7314C2.99171 77.6297 3.06965 77.5092 3.12178 77.377C3.17391 77.2448 3.19919 77.1036 3.19614 76.9615C3.19309 76.8195 3.16178 76.6794 3.10403 76.5496C3.0496 76.4191 2.96963 76.3009 2.86882 76.2018C2.768 76.1027 2.64838 76.0247 2.517 75.9725C2.38562 75.9204 2.24513 75.895 2.10379 75.8979C1.96246 75.9009 1.82314 75.932 1.69403 75.9896Z" fill="white"/>
<path d="M4.24387 81.9295C3.98143 82.0436 3.77503 82.2573 3.67003 82.5236C3.56503 82.7898 3.57001 83.0869 3.68387 83.3495C3.7383 83.4799 3.81827 83.5982 3.91909 83.6973C4.0199 83.7964 4.13952 83.8743 4.2709 83.9265C4.40228 83.9787 4.54277 84.0041 4.68411 84.0011C4.82544 83.9982 4.96476 83.967 5.09387 83.9095C5.35562 83.7971 5.56239 83.5859 5.66914 83.3218C5.7759 83.0577 5.774 82.7622 5.66387 82.4995C5.54948 82.237 5.33641 82.0301 5.0707 81.9234C4.805 81.8168 4.50799 81.8189 4.24387 81.9295Z" fill="white"/>
<path d="M6.80415 87.8795C6.53893 87.9922 6.32935 88.2057 6.22152 88.4729C6.11368 88.7402 6.11643 89.0393 6.22914 89.3045C6.34186 89.5698 6.55532 89.7793 6.82256 89.8872C7.0898 89.995 7.38893 89.9922 7.65414 89.8795C7.78547 89.8237 7.90451 89.7426 8.00447 89.6408C8.10444 89.539 8.18338 89.4184 8.23677 89.2861C8.29016 89.1538 8.31697 89.0123 8.31566 88.8696C8.31435 88.7269 8.28496 88.5859 8.22915 88.4545C8.17333 88.3232 8.0922 88.2042 7.99038 88.1042C7.88856 88.0042 7.76805 87.9253 7.63573 87.8719C7.50341 87.8185 7.36186 87.7917 7.21918 87.793C7.07649 87.7943 6.93547 87.8237 6.80415 87.8795Z" fill="white"/>
<path d="M-0.866054 70.0395C-1.06218 70.1237 -1.22897 70.2641 -1.34534 70.443C-1.46172 70.6219 -1.52248 70.8313 -1.51994 71.0447C-1.51741 71.2582 -1.45169 71.4661 -1.33109 71.6422C-1.21048 71.8182 -1.04041 71.9547 -0.842335 72.0342C-0.64426 72.1137 -0.427071 72.1327 -0.218185 72.0889C-0.00929999 72.045 0.181911 71.9403 0.331307 71.7879C0.480702 71.6354 0.581583 71.4421 0.621208 71.2324C0.660833 71.0227 0.637428 70.8059 0.553947 70.6095C0.498345 70.4787 0.417458 70.3601 0.31593 70.2606C0.214401 70.1611 0.0942264 70.0826 -0.0377005 70.0296C-0.169627 69.9767 -0.310709 69.9503 -0.452858 69.952C-0.595007 69.9537 -0.735424 69.9834 -0.866054 70.0395Z" fill="white"/>
<path d="M14.4638 105.72C14.2678 105.805 14.1014 105.946 13.9856 106.125C13.8699 106.305 13.81 106.515 13.8136 106.728C13.8172 106.942 13.8841 107.15 14.0058 107.325C14.1274 107.501 14.2985 107.637 14.4973 107.715C14.696 107.793 14.9136 107.811 15.1224 107.766C15.3312 107.721 15.5219 107.614 15.6703 107.461C15.8187 107.307 15.9182 107.113 15.9562 106.903C15.9943 106.692 15.969 106.475 15.8838 106.28C15.7696 106.017 15.5559 105.811 15.2897 105.706C15.0234 105.601 14.7264 105.606 14.4638 105.72Z" fill="white"/>
<path d="M9.35395 93.8297C9.15793 93.9147 8.99152 94.0559 8.87578 94.2355C8.76005 94.4151 8.70018 94.625 8.70376 94.8386C8.70735 95.0522 8.77421 95.26 8.8959 95.4356C9.01759 95.6112 9.18863 95.7468 9.38739 95.8252C9.58615 95.9036 9.8037 95.9213 10.0125 95.876C10.2213 95.8307 10.412 95.7245 10.5604 95.5708C10.7089 95.4171 10.8084 95.2229 10.8464 95.0126C10.8844 94.8024 10.8592 94.5856 10.7739 94.3897C10.7185 94.2588 10.6375 94.1404 10.5358 94.0412C10.434 93.942 10.3136 93.864 10.1814 93.8119C10.0492 93.7598 9.90794 93.7345 9.76588 93.7376C9.62381 93.7406 9.48378 93.7719 9.35395 93.8297Z" fill="white"/>
<path d="M11.9137 99.7695C11.7176 99.8537 11.5508 99.9941 11.4344 100.173C11.3181 100.352 11.2573 100.561 11.2598 100.775C11.2624 100.988 11.3281 101.196 11.4487 101.372C11.5693 101.548 11.7394 101.685 11.9374 101.764C12.1355 101.844 12.3527 101.863 12.5616 101.819C12.7705 101.775 12.9617 101.67 13.1111 101.518C13.2605 101.365 13.3614 101.172 13.401 100.962C13.4406 100.753 13.4172 100.536 13.3337 100.339C13.2781 100.209 13.1972 100.09 13.0957 99.9906C12.9942 99.8911 12.874 99.8126 12.7421 99.7596C12.6102 99.7067 12.4691 99.6803 12.3269 99.682C12.1848 99.6837 12.0444 99.7134 11.9137 99.7695Z" fill="white"/>
<path d="M8.90397 79.9295C8.70784 80.0137 8.54105 80.1541 8.42468 80.333C8.3083 80.5119 8.24754 80.7213 8.25008 80.9347C8.25261 81.1482 8.31833 81.356 8.43893 81.5321C8.55953 81.7082 8.72961 81.8446 8.92768 81.9242C9.12576 82.0037 9.34295 82.0227 9.55183 81.9789C9.76072 81.935 9.95193 81.8303 10.1013 81.6778C10.2507 81.5254 10.3516 81.3321 10.3912 81.1224C10.4308 80.9127 10.4074 80.6959 10.324 80.4995C10.2096 80.237 9.9965 80.0301 9.73079 79.9234C9.46509 79.8168 9.16808 79.8189 8.90397 79.9295Z" fill="white"/>
<path d="M6.3542 73.9895C6.22285 74.0429 6.10357 74.1222 6.00341 74.2226C5.90325 74.323 5.82426 74.4425 5.77111 74.574C5.71796 74.7055 5.69173 74.8463 5.69398 74.9881C5.69623 75.1299 5.72691 75.2698 5.7842 75.3995C5.84001 75.5308 5.92114 75.6498 6.02296 75.7498C6.12477 75.8498 6.24529 75.9287 6.37761 75.9821C6.50993 76.0355 6.65148 76.0623 6.79416 76.061C6.93685 76.0597 7.07788 76.0303 7.2092 75.9745C7.34052 75.9187 7.45956 75.8375 7.55953 75.7357C7.6595 75.6339 7.73843 75.5134 7.79182 75.3811C7.84522 75.2487 7.87202 75.1072 7.87072 74.9645C7.86941 74.8218 7.84001 74.6808 7.7842 74.5495C7.72994 74.4165 7.64923 74.2959 7.54696 74.1951C7.44469 74.0943 7.32299 74.0152 7.18926 73.9629C7.05553 73.9105 6.91255 73.8859 6.769 73.8904C6.62545 73.895 6.48433 73.9287 6.3542 73.9895Z" fill="white"/>
<path d="M11.4639 85.8795C11.2667 85.963 11.0987 86.1034 10.9814 86.2826C10.8642 86.4619 10.8028 86.672 10.8052 86.8862C10.8077 87.1004 10.8737 87.309 10.995 87.4856C11.1164 87.6621 11.2874 87.7986 11.4865 87.8777C11.6856 87.9568 11.9037 87.9748 12.1131 87.9296C12.3225 87.8844 12.5137 87.7779 12.6625 87.6238C12.8112 87.4696 12.9107 87.2747 12.9484 87.0638C12.986 86.8529 12.9601 86.6356 12.8739 86.4395C12.8195 86.309 12.7395 86.1908 12.6387 86.0917C12.5379 85.9926 12.4183 85.9146 12.2869 85.8624C12.1555 85.8103 12.015 85.7849 11.8737 85.7878C11.7324 85.7908 11.593 85.8219 11.4639 85.8795Z" fill="white"/>
<path d="M3.7941 68.0395C3.59797 68.1237 3.43119 68.2641 3.31481 68.4431C3.19843 68.622 3.13768 68.8314 3.14021 69.0448C3.14275 69.2582 3.20847 69.4661 3.32907 69.6422C3.44967 69.8183 3.61974 69.9547 3.81782 70.0342C4.01589 70.1137 4.23308 70.1327 4.44197 70.0889C4.65085 70.0451 4.84206 69.9403 4.99146 69.7879C5.14085 69.6355 5.24174 69.4422 5.28136 69.2324C5.32099 69.0227 5.29758 68.806 5.2141 68.6095C5.15959 68.4778 5.07931 68.3583 4.97798 68.2581C4.87665 68.1578 4.75631 68.0788 4.62403 68.0257C4.49175 67.9726 4.35019 67.9465 4.20767 67.9489C4.06515 67.9512 3.92454 67.9821 3.7941 68.0395Z" fill="white"/>
<path d="M1.24385 62.0996C1.1125 62.153 0.993215 62.2323 0.893058 62.3327C0.792902 62.4331 0.713909 62.5526 0.660759 62.6841C0.607608 62.8155 0.581381 62.9564 0.583629 63.0981C0.585877 63.2399 0.616556 63.3799 0.673847 63.5096C0.729659 63.6409 0.810791 63.7599 0.912609 63.8599C1.01443 63.9599 1.13494 64.0388 1.26726 64.0922C1.39958 64.1456 1.54113 64.1724 1.68381 64.1711C1.82649 64.1698 1.96752 64.1404 2.09885 64.0846C2.23017 64.0288 2.34921 63.9476 2.44918 63.8458C2.54915 63.744 2.62808 63.6235 2.68147 63.4912C2.73487 63.3588 2.76168 63.2173 2.76037 63.0746C2.75906 62.9319 2.72966 62.7909 2.67385 62.6596C2.61959 62.5266 2.53888 62.406 2.43661 62.3052C2.33434 62.2044 2.21264 62.1253 2.07891 62.073C1.94518 62.0206 1.8022 61.996 1.65865 62.0005C1.5151 62.0051 1.37398 62.0388 1.24385 62.0996Z" fill="white"/>
<path d="M19.124 103.72C18.9926 103.775 18.8736 103.857 18.7736 103.958C18.6737 104.06 18.5947 104.181 18.5413 104.313C18.4879 104.445 18.4611 104.587 18.4624 104.73C18.4638 104.872 18.4932 105.013 18.549 105.145C18.6048 105.276 18.6859 105.395 18.7877 105.495C18.8895 105.595 19.0101 105.674 19.1424 105.727C19.2747 105.781 19.4163 105.807 19.5589 105.806C19.7016 105.805 19.8426 105.775 19.974 105.72C20.2364 105.605 20.4434 105.392 20.55 105.126C20.6567 104.861 20.6545 104.564 20.544 104.3C20.4904 104.167 20.4108 104.047 20.3099 103.945C20.209 103.844 20.0888 103.764 19.9564 103.71C19.8241 103.656 19.6822 103.629 19.5392 103.63C19.3962 103.632 19.255 103.662 19.124 103.72Z" fill="white"/>
<path d="M21.684 109.66C21.5531 109.715 21.4345 109.796 21.335 109.898C21.2355 109.999 21.1571 110.119 21.1041 110.251C21.0511 110.383 21.0248 110.524 21.0264 110.666C21.0281 110.809 21.0579 110.949 21.114 111.08C21.2304 111.34 21.4436 111.546 21.7086 111.652C21.9736 111.758 22.2696 111.757 22.534 111.65C22.7992 111.537 23.0087 111.323 23.1166 111.056C23.2244 110.789 23.2217 110.49 23.109 110.225C22.9962 109.959 22.7828 109.75 22.5155 109.642C22.2483 109.534 21.9492 109.537 21.684 109.65V109.66Z" fill="white"/>
<path d="M16.5638 97.7697C16.4278 97.8221 16.304 97.9017 16.1999 98.0036C16.0957 98.1055 16.0135 98.2277 15.9583 98.3625C15.9031 98.4973 15.8759 98.642 15.8786 98.7877C15.8813 98.9334 15.9136 99.077 15.9738 99.2097C16.09 99.4704 16.3039 99.675 16.5694 99.7797C16.8349 99.8844 17.1309 99.8808 17.3938 99.7697C17.659 99.6556 17.868 99.4409 17.9749 99.1727C18.0818 98.9046 18.0778 98.6049 17.9638 98.3397C17.8497 98.0745 17.635 97.8654 17.3668 97.7585C17.0986 97.6516 16.799 97.6556 16.5338 97.7697H16.5638Z" fill="white"/>
<path d="M13.974 91.8295C13.8435 91.8841 13.7252 91.964 13.6258 92.0646C13.5264 92.1652 13.4479 92.2845 13.3949 92.4156C13.3419 92.5468 13.3154 92.6871 13.317 92.8285C13.3185 92.9699 13.3481 93.1096 13.404 93.2395C13.4598 93.3709 13.5409 93.4899 13.6428 93.5899C13.7446 93.6898 13.8651 93.7688 13.9974 93.8222C14.1297 93.8756 14.2713 93.9024 14.414 93.9011C14.5567 93.8997 14.6977 93.8703 14.829 93.8145C14.9603 93.7587 15.0794 93.6776 15.1793 93.5758C15.2793 93.474 15.3582 93.3534 15.4116 93.2211C15.465 93.0888 15.4918 92.9473 15.4905 92.8046C15.4892 92.6619 15.4598 92.5209 15.404 92.3895C15.3486 92.2575 15.2673 92.1379 15.1648 92.0378C15.0623 91.9378 14.9408 91.8593 14.8074 91.8071C14.6741 91.7549 14.5316 91.7299 14.3885 91.7338C14.2453 91.7376 14.1044 91.7702 13.974 91.8295Z" fill="white"/>
<path d="M16.1138 83.8795C15.9833 83.9339 15.8651 84.0139 15.766 84.1147C15.6669 84.2155 15.5889 84.3351 15.5368 84.4665C15.4846 84.5979 15.4592 84.7384 15.4621 84.8797C15.4651 85.021 15.4962 85.1604 15.5538 85.2895C15.6094 85.4203 15.6903 85.5389 15.7918 85.6384C15.8934 85.7379 16.0135 85.8164 16.1455 85.8693C16.2774 85.9223 16.4185 85.9487 16.5606 85.947C16.7028 85.9453 16.8432 85.9155 16.9738 85.8595C17.2345 85.7432 17.4392 85.5294 17.5439 85.2638C17.6486 84.9983 17.645 84.7023 17.5338 84.4395C17.4783 84.3086 17.3974 84.1902 17.2956 84.091C17.1939 83.9918 17.0734 83.9138 16.9412 83.8617C16.809 83.8096 16.6678 83.7843 16.5257 83.7874C16.3837 83.7904 16.2436 83.8217 16.1138 83.8795Z" fill="white"/>
<path d="M18.6739 89.8196C18.4766 89.9032 18.3087 90.0435 18.1914 90.2227C18.0741 90.402 18.0128 90.6121 18.0152 90.8263C18.0176 91.0405 18.0837 91.2491 18.205 91.4257C18.3263 91.6022 18.4974 91.7387 18.6965 91.8178C18.8956 91.8969 19.1137 91.915 19.3231 91.8697C19.5325 91.8245 19.7237 91.7181 19.8724 91.5639C20.0211 91.4097 20.1207 91.2148 20.1583 91.0039C20.196 90.793 20.1701 90.5757 20.0839 90.3796C19.9677 90.1214 19.7555 89.9186 19.4923 89.814C19.2291 89.7095 18.9356 89.7115 18.6739 89.8196Z" fill="white"/>
<path d="M8.45377 66.0295C8.25764 66.1137 8.09085 66.2541 7.97448 66.4331C7.8581 66.612 7.79734 66.8214 7.79988 67.0348C7.80242 67.2482 7.86813 67.4561 7.98874 67.6322C8.10934 67.8083 8.27941 67.9447 8.47749 68.0242C8.67556 68.1037 8.89275 68.1228 9.10164 68.0789C9.31052 68.0351 9.50173 67.9303 9.65113 67.7779C9.80052 67.6255 9.9014 67.4322 9.94103 67.2224C9.98065 67.0127 9.95725 66.796 9.87377 66.5995C9.75735 66.3388 9.5441 66.1335 9.27911 66.0272C9.01412 65.9208 8.71815 65.9216 8.45377 66.0295Z" fill="white"/>
<path d="M13.5641 77.9295C13.368 78.0137 13.2012 78.1541 13.0848 78.333C12.9685 78.5119 12.9077 78.7213 12.9102 78.9347C12.9128 79.1482 12.9785 79.356 13.0991 79.5321C13.2197 79.7082 13.3898 79.8446 13.5878 79.9242C13.7859 80.0037 14.0031 80.0227 14.212 79.9789C14.4209 79.935 14.6121 79.8303 14.7615 79.6778C14.9109 79.5254 15.0118 79.3321 15.0514 79.1224C15.091 78.9127 15.0676 78.6959 14.9841 78.4995C14.8697 78.237 14.6567 78.0301 14.3909 77.9234C14.1252 77.8168 13.8282 77.8189 13.5641 77.9295Z" fill="white"/>
<path d="M26.3341 107.66C26.138 107.744 25.9712 107.884 25.8548 108.063C25.7385 108.242 25.6777 108.452 25.6803 108.665C25.6828 108.878 25.7485 109.086 25.8691 109.262C25.9897 109.438 26.1598 109.575 26.3579 109.654C26.5559 109.734 26.7731 109.753 26.982 109.709C27.1909 109.665 27.3821 109.56 27.5315 109.408C27.6809 109.256 27.7818 109.062 27.8214 108.853C27.861 108.643 27.8376 108.426 27.7541 108.23C27.6397 107.967 27.4267 107.76 27.161 107.654C26.8953 107.547 26.5983 107.549 26.3341 107.66Z" fill="white"/>
<path d="M10.9742 71.9896C10.8437 72.044 10.7254 72.124 10.6263 72.2248C10.5272 72.3256 10.4493 72.4452 10.3971 72.5766C10.3449 72.708 10.3196 72.8485 10.3225 72.9898C10.3254 73.1311 10.3566 73.2705 10.4142 73.3996C10.4698 73.5304 10.5506 73.649 10.6522 73.7485C10.7537 73.848 10.8739 73.9265 11.0058 73.9794C11.1377 74.0324 11.2788 74.0588 11.421 74.0571C11.5631 74.0554 11.7035 74.0257 11.8342 73.9696C12.0948 73.8533 12.2995 73.6395 12.4042 73.374C12.5089 73.1084 12.5053 72.8125 12.3942 72.5496C12.3387 72.4188 12.2577 72.3003 12.156 72.2011C12.0543 72.1019 11.9338 72.024 11.8016 71.9718C11.6694 71.9197 11.5282 71.8944 11.3861 71.8975C11.244 71.9005 11.104 71.9318 10.9742 71.9896Z" fill="white"/>
<path d="M21.2238 95.7595C21.0277 95.8437 20.8609 95.9842 20.7445 96.1631C20.6281 96.342 20.5674 96.5514 20.5699 96.7648C20.5724 96.9782 20.6382 97.1861 20.7588 97.3622C20.8794 97.5383 21.0494 97.6747 21.2475 97.7542C21.4456 97.8337 21.6628 97.8528 21.8717 97.8089C22.0805 97.7651 22.2718 97.6603 22.4212 97.5079C22.5705 97.3555 22.6714 97.1622 22.711 96.9525C22.7507 96.7427 22.7273 96.526 22.6438 96.3295C22.5294 96.0671 22.3163 95.8602 22.0506 95.7535C21.7849 95.6468 21.4879 95.649 21.2238 95.7595Z" fill="white"/>
<path d="M23.7841 101.72C23.6536 101.774 23.5352 101.854 23.4358 101.955C23.3364 102.055 23.258 102.175 23.2049 102.306C23.1519 102.437 23.1255 102.577 23.127 102.719C23.1286 102.86 23.1582 103 23.2141 103.13C23.2968 103.327 23.4363 103.495 23.6149 103.613C23.7934 103.731 24.003 103.793 24.217 103.792C24.431 103.791 24.6397 103.726 24.8168 103.606C24.9938 103.485 25.1311 103.315 25.2113 103.117C25.2915 102.918 25.311 102.701 25.2672 102.491C25.2235 102.282 25.1185 102.09 24.9656 101.94C24.8126 101.791 24.6187 101.69 24.4083 101.65C24.198 101.611 23.9807 101.635 23.7841 101.72Z" fill="white"/>
<path d="M18.2138 75.9296C17.9486 76.0423 17.739 76.2557 17.6312 76.523C17.5234 76.7902 17.5261 77.0893 17.6388 77.3546C17.7515 77.6198 17.965 77.8293 18.2322 77.9372C18.4995 78.045 18.7986 78.0423 19.0638 77.9296C19.1943 77.875 19.3126 77.7951 19.412 77.6945C19.5114 77.5939 19.5899 77.4746 19.6429 77.3434C19.6959 77.2123 19.7224 77.072 19.7209 76.9306C19.7193 76.7892 19.6897 76.6495 19.6338 76.5195C19.5801 76.3869 19.5006 76.2663 19.3999 76.1647C19.2992 76.0631 19.1793 75.9825 19.0472 75.9276C18.9151 75.8727 18.7734 75.8446 18.6303 75.845C18.4872 75.8453 18.3457 75.8741 18.2138 75.9296Z" fill="white"/>
<path d="M15.6639 69.9897C15.5335 70.0443 15.4151 70.1242 15.3157 70.2248C15.2163 70.3254 15.1378 70.4447 15.0848 70.5758C15.0318 70.7069 15.0053 70.8472 15.0069 70.9886C15.0085 71.1301 15.038 71.2698 15.0939 71.3997C15.2083 71.6622 15.4214 71.8691 15.6871 71.9757C15.9528 72.0824 16.2498 72.0802 16.5139 71.9697C16.7771 71.8533 16.9842 71.6383 17.0908 71.371C17.1973 71.1037 17.1949 70.8052 17.0839 70.5397C16.9679 70.279 16.7534 70.0749 16.4874 69.9718C16.2213 69.8688 15.9253 69.8752 15.6639 69.9897Z" fill="white"/>
<path d="M13.104 64.0396C12.9732 64.0951 12.8547 64.176 12.7555 64.2778C12.6563 64.3795 12.5784 64.5 12.5263 64.6322C12.4741 64.7644 12.4489 64.9056 12.4519 65.0477C12.455 65.1898 12.4863 65.3298 12.544 65.4596C12.629 65.6556 12.7703 65.822 12.9499 65.9378C13.1294 66.0535 13.3393 66.1134 13.553 66.1098C13.7666 66.1062 13.9744 66.0394 14.15 65.9177C14.3256 65.796 14.4612 65.6249 14.5396 65.4262C14.6179 65.2274 14.6356 65.0099 14.5903 64.8011C14.5451 64.5923 14.4389 64.4016 14.2852 64.2531C14.1315 64.1047 13.9372 64.0052 13.727 63.9672C13.5167 63.9292 13.2999 63.9544 13.104 64.0396Z" fill="white"/>
<path d="M30.9738 105.66C30.7777 105.744 30.6109 105.884 30.4945 106.063C30.3781 106.242 30.3174 106.452 30.3199 106.665C30.3224 106.878 30.3882 107.086 30.5088 107.262C30.6294 107.438 30.7994 107.575 30.9975 107.654C31.1956 107.734 31.4128 107.753 31.6217 107.709C31.8305 107.665 32.0218 107.56 32.1712 107.408C32.3205 107.256 32.4214 107.062 32.461 106.853C32.5007 106.643 32.4773 106.426 32.3938 106.23C32.2794 105.967 32.0663 105.76 31.8006 105.654C31.5349 105.547 31.2379 105.549 30.9738 105.66Z" fill="white"/>
<path d="M25.8739 93.7697C25.6086 93.8837 25.3996 94.0985 25.2927 94.3666C25.1858 94.6348 25.1898 94.9345 25.3039 95.1997C25.4179 95.4649 25.6326 95.6739 25.9008 95.7808C26.169 95.8877 26.4686 95.8837 26.7339 95.7697C26.8652 95.7132 26.9841 95.6314 27.0838 95.529C27.1835 95.4266 27.2621 95.3055 27.315 95.1727C27.368 95.0399 27.3942 94.898 27.3923 94.7551C27.3904 94.6122 27.3603 94.471 27.3039 94.3397C27.2474 94.2084 27.1656 94.0894 27.0632 93.9897C26.9608 93.89 26.8397 93.8114 26.7069 93.7585C26.5741 93.7056 26.4322 93.6793 26.2893 93.6813C26.1463 93.6832 26.0052 93.7132 25.8739 93.7697Z" fill="white"/>
<path d="M20.774 81.8795C20.6435 81.9339 20.5252 82.0139 20.4261 82.1147C20.327 82.2155 20.2491 82.3351 20.1969 82.4665C20.1447 82.5979 20.1194 82.7384 20.1223 82.8797C20.1252 83.021 20.1564 83.1604 20.214 83.2895C20.2685 83.4199 20.3484 83.5383 20.449 83.6377C20.5496 83.7371 20.669 83.8156 20.8001 83.8686C20.9312 83.9216 21.0715 83.9481 21.2129 83.9465C21.3543 83.9449 21.4941 83.9153 21.624 83.8595C21.8864 83.7451 22.0934 83.532 22.2 83.2663C22.3067 83.0006 22.3045 82.7036 22.194 82.4395C22.1385 82.3086 22.0575 82.1902 21.9558 82.091C21.8541 81.9918 21.7336 81.9138 21.6014 81.8617C21.4692 81.8096 21.328 81.7843 21.1859 81.7874C21.0438 81.7904 20.9038 81.8217 20.774 81.8795Z" fill="white"/>
<path d="M28.434 99.7195C28.238 99.8045 28.0716 99.9458 27.9559 100.125C27.8401 100.305 27.7803 100.515 27.7838 100.728C27.7874 100.942 27.8543 101.15 27.976 101.325C28.0977 101.501 28.2687 101.637 28.4675 101.715C28.6662 101.793 28.8838 101.811 29.0926 101.766C29.3014 101.721 29.4921 101.614 29.6405 101.461C29.7889 101.307 29.8885 101.113 29.9265 100.903C29.9645 100.692 29.9393 100.475 29.854 100.28C29.7398 100.017 29.5262 99.8107 29.2599 99.7057C28.9937 99.6007 28.6966 99.6057 28.434 99.7195Z" fill="white"/>
<path d="M23.3242 87.8195C23.0589 87.9322 22.8494 88.1456 22.7415 88.4129C22.6337 88.6801 22.6364 88.9793 22.7492 89.2445C22.8619 89.5097 23.0753 89.7193 23.3426 89.8271C23.6098 89.9349 23.9089 89.9322 24.1742 89.8195C24.3055 89.7637 24.4245 89.6825 24.5245 89.5807C24.6245 89.4789 24.7034 89.3584 24.7568 89.2261C24.8102 89.0937 24.837 88.9522 24.8357 88.8095C24.8344 88.6668 24.805 88.5258 24.7492 88.3945C24.6934 88.2631 24.6122 88.1441 24.5104 88.0441C24.4086 87.9442 24.2881 87.8652 24.1558 87.8118C24.0234 87.7585 23.8819 87.7316 23.7392 87.733C23.5965 87.7343 23.4555 87.7637 23.3242 87.8195Z" fill="white"/>
<path d="M25.424 79.8796C25.2944 79.9351 25.1771 80.0157 25.0788 80.1167C24.9804 80.2177 24.903 80.3371 24.851 80.4682C24.7989 80.5992 24.7733 80.7392 24.7755 80.8802C24.7778 81.0211 24.8079 81.1603 24.864 81.2896C24.9476 81.4868 25.0879 81.6548 25.2672 81.7721C25.4464 81.8893 25.6565 81.9507 25.8707 81.9483C26.0849 81.9458 26.2936 81.8798 26.4701 81.7585C26.6467 81.6371 26.7832 81.4661 26.8622 81.267C26.9413 81.0679 26.9594 80.8498 26.9142 80.6404C26.869 80.431 26.7625 80.2398 26.6083 80.0911C26.4542 79.9423 26.2592 79.8428 26.0484 79.8052C25.8375 79.7675 25.6202 79.7934 25.424 79.8796Z" fill="white"/>
<path d="M22.8742 73.9296C22.678 74.0138 22.5113 74.1542 22.3949 74.3332C22.2785 74.5121 22.2178 74.7215 22.2203 74.9349C22.2228 75.1483 22.2885 75.3562 22.4091 75.5323C22.5297 75.7084 22.6998 75.8448 22.8979 75.9243C23.096 76.0038 23.3132 76.0229 23.522 75.979C23.7309 75.9352 23.9221 75.8304 24.0715 75.678C24.2209 75.5256 24.3218 75.3323 24.3614 75.1225C24.4011 74.9128 24.3777 74.6961 24.2942 74.4996C24.2386 74.3688 24.1577 74.2502 24.0562 74.1507C23.9546 74.0512 23.8345 73.9727 23.7025 73.9198C23.5706 73.8668 23.4295 73.8404 23.2874 73.8421C23.1452 73.8438 23.0048 73.8735 22.8742 73.9296Z" fill="white"/>
<path d="M20.3138 67.9796C20.1825 68.0361 20.0636 68.1179 19.9639 68.2203C19.8641 68.3227 19.7856 68.4438 19.7326 68.5766C19.6257 68.8448 19.6298 69.1444 19.7438 69.4096C19.8578 69.6749 20.0726 69.8839 20.3408 69.9908C20.6089 70.0977 20.9086 70.0937 21.1738 69.9796C21.439 69.8656 21.6481 69.6509 21.755 69.3827C21.8619 69.1145 21.8578 68.8149 21.7438 68.5496C21.6298 68.2844 21.415 68.0754 21.1469 67.9685C20.8787 67.8616 20.579 67.8656 20.3138 67.9796Z" fill="white"/>
<path d="M27.9742 85.8197C27.7769 85.9032 27.609 86.0436 27.4917 86.2228C27.3744 86.4021 27.3131 86.6121 27.3155 86.8263C27.3179 87.0405 27.384 87.2492 27.5053 87.4258C27.6266 87.6023 27.7977 87.7388 27.9968 87.8179C28.1959 87.8969 28.414 87.915 28.6234 87.8698C28.8328 87.8246 29.024 87.7181 29.1727 87.564C29.3214 87.4098 29.421 87.2149 29.4586 87.004C29.4963 86.7931 29.4704 86.5758 29.3842 86.3797C29.27 86.1197 29.058 85.9152 28.7941 85.8104C28.5302 85.7056 28.2356 85.7089 27.9742 85.8197Z" fill="white"/>
<path d="M33.0939 97.7095C32.8978 97.7937 32.731 97.9341 32.6146 98.113C32.4982 98.2919 32.4375 98.5013 32.44 98.7148C32.4426 98.9282 32.5083 99.1361 32.6289 99.3122C32.7495 99.4883 32.9195 99.6247 33.1176 99.7042C33.3157 99.7837 33.5329 99.8027 33.7418 99.7589C33.9507 99.715 34.1419 99.6103 34.2913 99.4579C34.4407 99.3054 34.5415 99.1121 34.5812 98.9024C34.6208 98.6927 34.5974 98.4759 34.5139 98.2795C34.3995 98.017 34.1864 97.8101 33.9207 97.7035C33.655 97.5968 33.358 97.599 33.0939 97.7095Z" fill="white"/>
<path d="M30.534 91.7595C30.4012 91.8169 30.2812 91.9003 30.181 92.0046C30.0807 92.1089 30.0023 92.2321 29.9501 92.3671C29.898 92.5021 29.8733 92.6461 29.8774 92.7907C29.8815 92.9353 29.9143 93.0777 29.974 93.2095C30.0605 93.4042 30.2026 93.5691 30.3825 93.6833C30.5624 93.7975 30.7721 93.8559 30.9852 93.8511C31.1982 93.8464 31.4051 93.7788 31.5798 93.6567C31.7545 93.5346 31.8891 93.3636 31.9668 93.1652C32.0445 92.9668 32.0618 92.7498 32.0165 92.5416C31.9711 92.3334 31.8652 92.1432 31.712 91.9951C31.5588 91.8469 31.3653 91.7474 31.1556 91.7091C30.946 91.6707 30.7297 91.6952 30.534 91.7795V91.7595Z" fill="white"/>
<path d="M30.084 77.8795C29.9536 77.9339 29.8353 78.0139 29.7362 78.1147C29.6371 78.2155 29.5592 78.3351 29.507 78.4665C29.4548 78.5979 29.4294 78.7384 29.4324 78.8797C29.4353 79.021 29.4665 79.1604 29.524 79.2895C29.5786 79.4199 29.6585 79.5383 29.7591 79.6377C29.8597 79.7371 29.979 79.8156 30.1101 79.8686C30.2412 79.9216 30.3816 79.9481 30.523 79.9465C30.6644 79.9449 30.8041 79.9153 30.934 79.8595C31.1965 79.7451 31.4034 79.532 31.5101 79.2663C31.6167 79.0006 31.6146 78.7036 31.504 78.4395C31.4486 78.3086 31.3676 78.1902 31.2659 78.091C31.1641 77.9918 31.0436 77.9138 30.9115 77.8617C30.7793 77.8096 30.638 77.7843 30.496 77.7874C30.3539 77.7904 30.2139 77.8217 30.084 77.8795Z" fill="white"/>
<path d="M28.3841 73.9095C28.515 73.8541 28.6334 73.7731 28.7326 73.6714C28.8318 73.5696 28.9097 73.4492 28.9619 73.317C29.014 73.1848 29.0393 73.0435 29.0362 72.9015C29.0332 72.7594 29.0019 72.6194 28.9441 72.4895C28.8897 72.3591 28.8097 72.2408 28.7089 72.1417C28.6081 72.0426 28.4885 71.9647 28.3571 71.9125C28.2257 71.8603 28.0852 71.8349 27.9439 71.8379C27.8026 71.8408 27.6632 71.872 27.5341 71.9295C27.2689 72.0423 27.0593 72.2557 26.9515 72.523C26.8437 72.7902 26.8464 73.0893 26.9591 73.3546C27.0718 73.6198 27.2853 73.8293 27.5525 73.9372C27.8198 74.045 28.1189 74.0423 28.3841 73.9295V73.9095Z" fill="white"/>
<path d="M35.1939 89.7595C35.063 89.815 34.9446 89.896 34.8454 89.9977C34.7462 90.0994 34.6682 90.2199 34.6161 90.3521C34.564 90.4843 34.5387 90.6256 34.5418 90.7676C34.5448 90.9097 34.5761 91.0497 34.6339 91.1795C34.6883 91.31 34.7683 91.4283 34.8691 91.5274C34.9699 91.6265 35.0895 91.7044 35.2209 91.7566C35.3523 91.8088 35.4928 91.8341 35.6341 91.8312C35.7754 91.8283 35.9148 91.7971 36.0439 91.7395C36.1743 91.685 36.2927 91.6051 36.3921 91.5045C36.4915 91.4039 36.57 91.2846 36.623 91.1534C36.676 91.0223 36.7025 90.882 36.7009 90.7406C36.6993 90.5992 36.6698 90.4594 36.6139 90.3295C36.4995 90.0671 36.2864 89.8602 36.0207 89.7535C35.755 89.6468 35.458 89.649 35.1939 89.7595Z" fill="white"/>
<path d="M32.6441 83.8196C32.4469 83.9032 32.2789 84.0435 32.1616 84.2227C32.0443 84.402 31.983 84.6121 31.9854 84.8263C31.9878 85.0405 32.0539 85.2491 32.1752 85.4257C32.2965 85.6022 32.4676 85.7387 32.6667 85.8178C32.8658 85.8969 33.0839 85.915 33.2933 85.8697C33.5027 85.8245 33.6939 85.7181 33.8426 85.5639C33.9914 85.4097 34.0909 85.2148 34.1285 85.0039C34.1662 84.793 34.1403 84.5757 34.0541 84.3796C33.9986 84.25 33.918 84.1327 33.817 84.0343C33.716 83.936 33.5965 83.8586 33.4655 83.8065C33.3345 83.7545 33.1945 83.7288 33.0535 83.7311C32.9125 83.7333 32.7734 83.7634 32.6441 83.8196Z" fill="white"/>
<path opacity="0.3" d="M147.369 131C147.006 131 146.658 130.855 146.401 130.597C146.144 130.339 146 129.989 146 129.625C146 126.225 148.945 124.591 151.322 123.267C153.699 121.944 155.223 120.958 155.223 119.323C155.223 117.688 153.75 116.728 151.322 115.405C148.893 114.082 146 112.447 146 109.048C146 105.648 148.945 104.013 151.322 102.69C153.699 101.367 155.223 100.381 155.223 98.7459C155.223 97.1111 153.75 96.151 151.322 94.8277C148.893 93.5043 146 91.8436 146 88.4703C146 85.097 148.945 83.4363 151.322 82.1129C153.699 80.7895 155.223 79.8034 155.223 78.1687C155.223 76.5339 153.75 75.5738 151.322 74.2504C148.893 72.9271 146 71.2664 146 67.8671C146 64.4678 148.945 62.8331 151.322 61.5097C153.699 60.1863 155.223 59.2262 155.223 57.5915C155.196 57.3932 155.211 57.1915 155.268 56.9998C155.325 56.8081 155.423 56.6309 155.554 56.4801C155.685 56.3293 155.846 56.2085 156.028 56.1257C156.209 56.0428 156.406 56 156.605 56C156.804 56 157.001 56.0428 157.182 56.1257C157.364 56.2085 157.525 56.3293 157.656 56.4801C157.787 56.6309 157.884 56.8081 157.942 56.9998C157.999 57.1915 158.014 57.3932 157.987 57.5915C157.987 60.9648 155.042 62.6255 152.665 63.9489C150.288 65.2722 148.764 66.2323 148.764 67.8671C148.764 69.5019 150.237 70.462 152.665 71.8113C155.094 73.1606 157.987 74.7954 157.987 78.1687C157.987 81.542 155.042 83.2027 152.665 84.5261C150.288 85.8495 148.764 86.8355 148.764 88.4703C148.764 90.105 150.237 91.0651 152.665 92.3885C155.094 93.7119 157.987 95.3726 157.987 98.7459C157.987 102.119 155.042 103.78 152.665 105.103C150.288 106.427 148.764 107.413 148.764 109.048C148.764 110.682 150.237 111.642 152.665 112.966C155.094 114.289 157.987 115.95 157.987 119.323C157.987 122.696 155.042 124.357 152.665 125.681C150.288 127.004 148.764 127.99 148.764 129.625C148.757 129.992 148.608 130.342 148.347 130.599C148.086 130.856 147.735 131 147.369 131Z" fill="#F0F0F0"/>
</g>
<defs>
<linearGradient id="paint0_linear_29_9077" x1="0" y1="0" x2="66.8014" y2="182.671" gradientUnits="userSpaceOnUse">
<stop stop-color="#B5B5B5"/>
<stop offset="1" stop-color="#DBDBDB"/>
</linearGradient>
<linearGradient id="paint1_linear_29_9077" x1="91.2173" y1="-18.3458" x2="106.526" y2="18.0889" gradientUnits="userSpaceOnUse">
<stop stop-color="#FAFAFA"/>
<stop offset="1" stop-color="#D6D6D6" stop-opacity="0"/>
</linearGradient>
<linearGradient id="paint2_linear_29_9077" x1="16.7518" y1="55.6181" x2="29.9882" y2="87.1217" gradientUnits="userSpaceOnUse">
<stop stop-color="#ECECEC"/>
<stop offset="1" stop-color="#989898" stop-opacity="0"/>
</linearGradient>
<clipPath id="clip0_29_9077">
<rect width="180" height="110" rx="12" fill="white"/>
</clipPath>
</defs>
</svg>
