<svg width="24" height="24" viewBox="0 0 24 24" xmlns="http://www.w3.org/2000/svg">
<path fill-rule="evenodd" clip-rule="evenodd" d="M6.75 2.25C4.67893 2.25 3 3.92893 3 6V18C3 20.0711 4.67893 21.75 6.75 21.75H12.75C14.8211 21.75 16.5 20.0711 16.5 18V17C16.5 16.5858 16.1642 16.25 15.75 16.25C15.3358 16.25 15 16.5858 15 17V18C15 19.2426 13.9926 20.25 12.75 20.25H6.75C5.50736 20.25 4.5 19.2426 4.5 18V6C4.5 4.75736 5.50736 3.75 6.75 3.75H12.75C13.9926 3.75 15 4.75736 15 6V7C15 7.41421 15.3358 7.75 15.75 7.75C16.1642 7.75 16.5 7.41421 16.5 7V6C16.5 3.92893 14.8211 2.25 12.75 2.25H6.75ZM11.7803 9.53033C12.0732 9.23744 12.0732 8.76256 11.7803 8.46967C11.4874 8.17678 11.0126 8.17678 10.7197 8.46967L7.71967 11.4697C7.42678 11.7626 7.42678 12.2374 7.71967 12.5303L10.7197 15.5303C11.0126 15.8232 11.4874 15.8232 11.7803 15.5303C12.0732 15.2374 12.0732 14.7626 11.7803 14.4697L10.0607 12.75H20.25C20.6642 12.75 21 12.4142 21 12C21 11.5858 20.6642 11.25 20.25 11.25H10.0607L11.7803 9.53033Z" fill-opacity="0.72"/>
</svg>
