<?xml version="1.0" encoding="UTF-8" standalone="no"?>
<svg
   width="18"
   height="18"
   viewBox="0 0 18 18"
   fill="none"
   version="1.1"
   id="svg11"
   xmlns="http://www.w3.org/2000/svg">
  <path
     d="m 3.0100303,13.1004 c 0,0 1.26186,3.7839 5.99219,4.8997 V 16.5937 C 13.82548,16.5937 17.73548,13.5561 17.73548,8.73321 17.73548,3.91037 13.82548,0 9.0022203,0 c -4.82266,0 -8.733215,3.91037 -8.733215,8.73321 0,0.43161 0.032343,0.85532 0.092332,1.26999 0.575973,-3.69818 3.781003,-6.58345 8.422433,-7.50177 0.0374,-0.48623 0.07493,-0.97384 0.11787,-1.52849 3.7899397,0.68312 5.9224397,4.69702 5.9224397,4.69702 0,0 -1.8437,3.33013 -5.7654197,4.54234 l 0.00692,-1.93375 c -4.54585,1.45597 -6.05555,4.82185 -6.05555,4.82185 z"
     fill="url(#paint0_linear_2987_1143)"
     id="path2"
     style="fill:url(#paint0_linear_2987_1143)" />
  <defs>
    <linearGradient
       id="paint0_linear_2987_1143"
       x1="0.53419399"
       y1="-2.8125"
       x2="14.0343"
       y2="20.5"
       gradientUnits="userSpaceOnUse"
       gradientTransform="translate(-0.5320197)">
      <stop
         stop-color="#00D5C7"
         id="stop4" />
      <stop
         offset="1"
         stop-color="#FFEE57"
         id="stop6" />
    </linearGradient>
  </defs>
</svg>
