<svg width="24" height="16" viewBox="0 0 24 16" fill="none" xmlns="http://www.w3.org/2000/svg">
<path fill-rule="evenodd" clip-rule="evenodd" d="M15.625 7.125C15.625 9.61028 13.6103 11.625 11.125 11.625C8.63972 11.625 6.625 9.61028 6.625 7.125C6.625 4.63972 8.63972 2.625 11.125 2.625C13.6103 2.625 15.625 4.63972 15.625 7.125ZM14.8042 11.8649C13.7882 12.6547 12.5115 13.125 11.125 13.125C7.81129 13.125 5.125 10.4387 5.125 7.125C5.125 3.81129 7.81129 1.125 11.125 1.125C14.4387 1.125 17.125 3.81129 17.125 7.125C17.125 8.51153 16.6547 9.78822 15.8649 10.8042L18.6553 13.5947C18.9482 13.8876 18.9482 14.3624 18.6553 14.6553C18.3624 14.9482 17.8876 14.9482 17.5947 14.6553L14.8042 11.8649Z" fill="#000B26" fill-opacity="0.48"/>
</svg>
